<svg xmlns:sketch="http://www.bohemiancoding.com/sketch/ns" xmlns="http://www.w3.org/2000/svg" xmlns:xlink="http://www.w3.org/1999/xlink" version="1.1" id="Layer_1" x="0px" y="0px" viewBox="-511 321 256 160" xml:space="preserve" enable-background="new -511 321 256 160">
<path d="M-413.1,471.1c-2.7,0-5.5-0.3-8.2-0.9c-1-0.2-1.6-1.2-1.4-2.1c0.2-0.8,0.9-1.4,1.8-1.4c0.1,0,0.2,0,0.4,0  c2.5,0.5,5,0.8,7.5,0.8h1.6c1.5,0,1.7,1.3,1.7,1.7c0,1-0.7,1.8-1.7,1.9H-413.1L-413.1,471.1z M-398,468c-0.7,0-1.4-0.4-1.7-1.1  c-0.4-0.9,0-2,1-2.4c1.8-0.8,3.4-1.6,5-2.6c0.3-0.2,0.6-0.3,0.9-0.3c0.6,0,1.2,0.3,1.6,0.9c0.2,0.4,0.3,0.9,0.2,1.4  c-0.1,0.5-0.4,0.9-0.8,1.1c-1.8,1.1-3.6,2-5.5,2.8C-397.5,468-397.7,468-398,468z M-434.1,465.5c-0.3,0-0.6-0.1-0.8-0.2  c-2.7-1.4-5.4-3.1-8.2-5c-0.4-0.3-0.7-0.7-0.8-1.2c-0.1-0.5,0-1,0.3-1.4c0.3-0.5,0.9-0.8,1.5-0.8c0.4,0,0.7,0.1,1,0.3  c2.6,1.8,5.2,3.4,7.8,4.8c0.4,0.2,0.7,0.6,0.9,1.1c0.1,0.5,0.1,0.9-0.1,1.4C-432.8,465.2-433.4,465.5-434.1,465.5z M-386.8,459.5  c-0.2,0-0.2,0-0.3,0c-0.2,0-0.4-0.1-0.5-0.2s-0.2-0.1-0.2-0.1s0,0-0.1-0.1c-0.1,0-0.1-0.1-0.2-0.2l-0.1-0.1c0-0.1-0.1-0.1-0.1-0.2  c-0.1-0.2-0.1-0.3-0.2-0.4c0,0,0,0,0-0.1l-11.2-33.7c-0.1-0.3-0.4-0.6-0.7-0.7l-33.8-11.3c-0.7-0.2-1.2-0.8-1.2-1.5  c-0.1-0.7,0.3-1.4,0.9-1.7l111.3-64.5c0,0,0.1,0,0.1-0.1c0.3-0.1,0.6-0.2,0.9-0.2c0.4,0,0.7,0.1,1,0.3l0.2,0.1  c0.1,0.1,0.1,0.1,0.2,0.2c0,0,0,0.1,0.1,0.1c0,0,0.1,0.2,0.2,0.3v0.1c0.1,0.2,0.1,0.3,0.1,0.4c0,0.2,0,0.3,0,0.5v0.1l-17.6,99.6  c-0.1,0.5-0.4,1-0.9,1.3c-0.3,0.1-0.6,0.2-0.9,0.2c-0.2,0-0.5-0.1-0.7-0.1l-26.7-11.5c-0.1-0.1-0.3-0.1-0.4-0.1  c-0.3,0-0.7,0.2-0.9,0.4l-16.6,22.2c0,0,0,0.1-0.1,0.1c-0.1,0.1-0.2,0.2-0.3,0.3l0,0c-0.1,0.1-0.2,0.2-0.3,0.2  c-0.2,0.1-0.4,0.2-0.6,0.2C-386.7,459.5-386.8,459.5-386.8,459.5z M-339,365.6l-57,56.9c-0.3,0.3-0.4,0.7-0.3,1.1  c0,0,6.3,19.1,8.6,25.5c0.1,0.3,0.6,0.3,0.7-0.1l4.2-21v-0.1c0.1-0.3,0.2-0.6,0.3-0.7c0,0,34.4-47.9,43.9-61.2  C-338.3,365.7-338.7,365.3-339,365.6z M-378.8,431.4c-0.2,0-0.4,0-0.5,0.1c-0.3,0.2-0.5,0.4-0.6,0.8l-3.4,16.9  c-0.1,0.3,0.3,0.5,0.5,0.2c2.5-3.3,10.3-13.9,10.3-13.9c0.2-0.3,0.3-0.6,0.2-1c-0.1-0.3-0.3-0.6-0.6-0.7l-5.5-2.3  C-378.5,431.4-378.7,431.4-378.8,431.4z M-377.4,426.4c-0.2,0.3-0.3,0.6-0.2,1c0.1,0.3,0.3,0.6,0.6,0.7c0,0,22.1,9.6,35.4,15.2  c0.1,0.1,0.3,0,0.3-0.2l15.5-87.9c0.1-0.6-0.6-0.9-0.9-0.4C-335.8,367.5-377.4,426.4-377.4,426.4z M-333.6,354.9l-95.6,55.1  c-0.2,0.1-0.2,0.4,0,0.5c6.1,2.2,29.4,9.8,29.4,9.8c0.1,0,0.2,0.1,0.4,0.1c0.3,0,0.6-0.1,0.8-0.3c0,0,55.4-54.8,65.3-64.6  C-333,355.1-333.3,354.7-333.6,354.9z M-453,451.8c-0.3,0-0.8-0.1-1.2-0.5c-1.4-1.3-2.8-2.7-4.3-4.1c-0.7-0.7-0.7-1.9,0-2.6  c0.3-0.3,0.8-0.5,1.3-0.5s0.9,0.2,1.3,0.5c1.4,1.4,2.8,2.7,4.2,4c0.7,0.7,0.8,1.8,0.1,2.6C-452,451.6-452.5,451.8-453,451.8z" fill="#2ecc71"></path>
</svg>
