<svg xmlns="http://www.w3.org/2000/svg" xmlns:xlink="http://www.w3.org/1999/xlink" viewBox="0 0 100 72" version="1.1">
    <!-- Generator: Sketch 43.2 (39069) - http://www.bohemiancoding.com/sketch -->
    <title>publisher-regular</title>
    <desc>Created with Sketch.</desc>
    <defs></defs>
    <g id="Pricing-page-update" stroke-width="1" fill-rule="evenodd">
        <g id="publisher-regular" fill-rule="nonzero">
            <path d="M68.6556263,16.9048102 L63.6974103,8.31692818 L29.9260875,29.7372416 C29.4442693,30.0428469 29.2816299,30.7070478 29.5678643,31.2028204 L34.5620056,39.8529269 C34.8482955,40.3487956 35.5049812,40.5398419 36.0103457,40.2754858 L71.4465427,21.7388191 L69.6558003,18.6371623 L60.7216018,24.019936 C60.2485422,24.3049501 59.634002,24.1525092 59.3489879,23.6794495 C59.0639737,23.2063899 59.2164147,22.5918498 59.6894743,22.3068356 L68.6556263,16.9048102 L68.6556263,16.9048102 Z M27.832889,32.1977438 C27.0149351,30.7747537 27.4686389,28.9275611 28.8548482,28.0483229 L66.0409509,4.46209919 C67.4546816,3.56540488 69.2957593,4.01355308 70.131699,5.461443 L77.1366097,17.5943043 C77.9724709,19.0420584 77.4407022,20.8603829 75.9566928,21.6366679 L36.9373725,42.0476656 C35.4833037,42.8082887 33.6564662,42.278222 32.832889,40.8579979 L28.5011128,43.35895 C27.0653091,44.1879116 25.2364159,43.7005317 24.4056302,42.2615687 L22.4037316,38.7941785 C21.5747699,37.3583748 22.0621498,35.5294816 23.5011128,34.6986959 L27.8328887,32.197744 L27.832889,32.1977438 Z M65.3877945,7.2447594 L73.2202601,20.8109879 L75.0296659,19.8644881 C75.5075052,19.6145305 75.6709387,19.0556877 75.4045589,18.5943043 L68.3996482,6.461443 C68.1333317,6.00016931 67.5672602,5.86237831 67.1121902,6.15101789 L65.3877945,7.2447594 L65.3877945,7.2447594 Z M28.8328841,33.9297974 L24.5011128,36.4307467 C24.0197935,36.7086366 23.8584962,37.3139048 24.1357824,37.7941785 L26.137681,41.2615687 C26.4155709,41.742888 27.0208391,41.9041853 27.5011128,41.6268992 L31.8328841,39.1259498 L28.8328841,33.9297974 Z M52.7707063,64.233645 L52.7707063,42.4442568 C51.6664403,42.3372873 50.6369576,41.9731972 49.7428475,41.4127595 L36.506734,64.233645 L37.2707063,64.233645 C37.8229911,64.233645 38.2707063,64.6813602 38.2707063,65.233645 C38.2707063,65.7859297 37.8229911,66.233645 37.2707063,66.233645 L34.7879355,66.233645 C34.7758394,66.2338649 34.7637289,66.2338654 34.75161,66.233645 L30.7707063,66.233645 C30.2184216,66.233645 29.7707063,65.7859297 29.7707063,65.233645 C29.7707063,64.6813602 30.2184216,64.233645 30.7707063,64.233645 L34.1946786,64.233645 L48.1946357,40.0957881 C47.2887304,39.0655264 46.6804854,37.767443 46.5048278,36.3368741 L48.4524106,35.2548837 L48.4524106,35.4771059 C48.4524106,38.2342893 50.6934876,40.4771059 53.4524106,40.4771059 C56.209594,40.4771059 58.4524106,38.2360289 58.4524106,35.4771059 L58.4524106,30.4771059 L57.0524106,30.4771059 L60.1471258,28.7578197 C60.3353585,28.9396616 60.4524106,29.1947143 60.4524106,29.4771059 L60.4524106,35.4771059 C60.4524106,37.036802 59.9409916,38.4779261 59.0770523,39.6420598 C59.0979651,39.6706378 59.1175709,39.7006052 59.1357375,39.7319269 L73.346734,64.233645 L76.7707063,64.233645 C77.3229911,64.233645 77.7707063,64.6813602 77.7707063,65.233645 C77.7707063,65.7859297 77.3229911,66.233645 76.7707063,66.233645 L72.7898027,66.233645 C72.7776837,66.2338654 72.7655732,66.2338649 72.7534773,66.233645 L70.2707063,66.233645 C69.7184216,66.233645 69.2707063,65.7859297 69.2707063,65.233645 C69.2707063,64.6813602 69.7184216,64.233645 70.2707063,64.233645 L71.0346786,64.233645 L57.6179057,41.1012778 C56.7898304,41.7158912 55.8216942,42.152091 54.7707063,42.3528411 L54.7707063,64.233645 L57.7707063,64.233645 C58.3229911,64.233645 58.7707063,64.6813602 58.7707063,65.233645 C58.7707063,65.7859297 58.3229911,66.233645 57.7707063,66.233645 L49.7707063,66.233645 C49.2184216,66.233645 48.7707063,65.7859297 48.7707063,65.233645 C48.7707063,64.6813602 49.2184216,64.233645 49.7707063,64.233645 L52.7707063,64.233645 L52.7707063,64.233645 Z M53.8057965,28.1333266 C53.3372474,28.4256966 52.7204007,28.2828752 52.4280307,27.8143262 C52.1356607,27.3457771 52.278482,26.7289303 52.7470311,26.4365603 L55.2204717,24.8931577 C55.6890208,24.6007878 56.3058676,24.7436091 56.5982376,25.2121582 C56.8906076,25.6807072 56.7477862,26.297554 56.2792371,26.589924 L53.8057965,28.1333266 Z M54.7036993,37.4771059 C54.7036993,38.0293907 54.2559841,38.4771059 53.7036993,38.4771059 C53.1514146,38.4771059 52.7036993,38.0293907 52.7036993,37.4771059 L52.7036993,32.9771059 C52.7036993,32.4248212 53.1514146,31.9771059 53.7036993,31.9771059 C54.2559841,31.9771059 54.7036993,32.4248212 54.7036993,32.9771059 L54.7036993,37.4771059 Z" id="Combined-Shape" fill="#2ecc71"></path>
        </g>
    </g>
</svg>